<svg xmlns="http://www.w3.org/2000/svg" width="1280" height="720" viewBox="0 0 1280 720" role="img" aria-labelledby="title desc">
  <title id="title">DRIP strategy editorial image</title>
  <desc id="desc">A dividend reinvestment visual showing distributions cycling back into portfolio growth.</desc>
  <defs><linearGradient id="bg" x1="0" y1="0" x2="1" y2="1"><stop offset="0" stop-color="#063b35"/><stop offset="1" stop-color="#fbbf24"/></linearGradient></defs>
  <rect width="1280" height="720" fill="url(#bg)"/>
  <rect x="120" y="96" width="1040" height="528" rx="42" fill="#fff" opacity="0.94"/>
  <text x="184" y="184" fill="#0b3558" font-family="Segoe UI, Arial, sans-serif" font-size="42" font-weight="850">DRIP Strategy</text>
  <text x="184" y="232" fill="#64748b" font-family="Segoe UI, Arial, sans-serif" font-size="24" font-weight="600">Reinvest dividends with intention</text>
  <path d="M354 422a166 166 0 1 1 254 141" fill="none" stroke="#0f766e" stroke-width="24" stroke-linecap="round"/>
  <path d="M625 558l-64 8 32-56z" fill="#0f766e"/>
  <path d="M744 300a166 166 0 1 1-254-141" fill="none" stroke="#f2b84b" stroke-width="24" stroke-linecap="round"/>
  <path d="M473 164l64-8-32 56z" fill="#f2b84b"/>
  <circle cx="548" cy="360" r="82" fill="#0b3558"/>
  <text x="495" y="378" fill="#fff" font-family="Segoe UI, Arial, sans-serif" font-size="44" font-weight="950">DRIP</text>
  <rect x="830" y="286" width="180" height="82" rx="18" fill="#dcfce7"/>
  <text x="866" y="338" fill="#0f766e" font-family="Segoe UI, Arial, sans-serif" font-size="30" font-weight="900">Cash</text>
  <rect x="830" y="404" width="180" height="82" rx="18" fill="#fef3c7"/>
  <text x="866" y="456" fill="#92400e" font-family="Segoe UI, Arial, sans-serif" font-size="30" font-weight="900">Units</text>
</svg>
