<svg xmlns="http://www.w3.org/2000/svg" width="1280" height="720" viewBox="0 0 1280 720" role="img" aria-labelledby="title desc">
  <title id="title">TFSA investing editorial image</title>
  <desc id="desc">A Canadian TFSA investing illustration with account room blocks, growth line, and calm fintech styling.</desc>
  <defs>
    <linearGradient id="bg" x1="0" y1="0" x2="1" y2="1">
      <stop offset="0" stop-color="#08345f"/>
      <stop offset="0.64" stop-color="#2563eb"/>
      <stop offset="1" stop-color="#22c55e"/>
    </linearGradient>
  </defs>
  <rect width="1280" height="720" fill="url(#bg)"/>
  <rect x="110" y="92" width="1060" height="536" rx="44" fill="#ffffff" opacity="0.94"/>
  <text x="174" y="184" fill="#0b3558" font-family="Segoe UI, Arial, sans-serif" font-size="42" font-weight="850">TFSA Investing</text>
  <text x="176" y="232" fill="#537083" font-family="Segoe UI, Arial, sans-serif" font-size="24" font-weight="600">Room, withdrawals, growth, and mistakes</text>
  <rect x="176" y="304" width="202" height="150" rx="24" fill="#dbeafe"/>
  <rect x="416" y="304" width="202" height="150" rx="24" fill="#dcfce7"/>
  <rect x="656" y="304" width="202" height="150" rx="24" fill="#fef3c7"/>
  <text x="224" y="395" fill="#0b3558" font-family="Segoe UI, Arial, sans-serif" font-size="35" font-weight="900">Room</text>
  <text x="449" y="395" fill="#0b3558" font-family="Segoe UI, Arial, sans-serif" font-size="35" font-weight="900">ETF</text>
  <text x="696" y="395" fill="#0b3558" font-family="Segoe UI, Arial, sans-serif" font-size="35" font-weight="900">Tax</text>
  <path d="M194 542c132-98 223-70 332-106 104-34 154-122 304-104 80 10 146 48 230 10" fill="none" stroke="#0f766e" stroke-width="18" stroke-linecap="round"/>
  <circle cx="1060" cy="342" r="78" fill="#0b3558"/>
  <text x="1009" y="360" fill="#ffffff" font-family="Segoe UI, Arial, sans-serif" font-size="36" font-weight="900">TFSA</text>
</svg>
